<mxfile host="app.diagrams.net" modified="2021-01-05T03:48:54.170Z" agent="5.0 (Windows NT 10.0; Win64; x64) AppleWebKit/537.36 (KHTML, like Gecko) Chrome/87.0.4280.88 Safari/537.36" etag="q_egu8xSHCsq8C5Hx1ou" version="14.1.8" type="github">
  <diagram id="5ykc17lWJs92PCNrkv7X" name="Page-1">
    <mxGraphModel dx="1132" dy="621" grid="1" gridSize="10" guides="1" tooltips="1" connect="1" arrows="1" fold="1" page="1" pageScale="1" pageWidth="1100" pageHeight="850" math="0" shadow="0">
      <root>
        <mxCell id="0" />
        <mxCell id="1" parent="0" />
        <mxCell id="MmkwMx68INJmbAwqy8bG-1" value="" style="endArrow=classic;html=1;" edge="1" parent="1">
          <mxGeometry width="50" height="50" relative="1" as="geometry">
            <mxPoint x="120" y="360" as="sourcePoint" />
            <mxPoint x="240" y="360" as="targetPoint" />
          </mxGeometry>
        </mxCell>
        <mxCell id="MmkwMx68INJmbAwqy8bG-2" value="12V@5A" style="text;html=1;align=center;verticalAlign=middle;resizable=0;points=[];autosize=1;fontSize=14;" vertex="1" parent="1">
          <mxGeometry x="135" y="340" width="70" height="20" as="geometry" />
        </mxCell>
        <mxCell id="MmkwMx68INJmbAwqy8bG-3" value="Buck&lt;br&gt;TPS53015" style="rounded=0;whiteSpace=wrap;html=1;fontSize=14;fillColor=#ffe6cc;strokeColor=#d79b00;" vertex="1" parent="1">
          <mxGeometry x="320" y="240" width="100" height="60" as="geometry" />
        </mxCell>
        <mxCell id="MmkwMx68INJmbAwqy8bG-4" value="5V@5A" style="text;html=1;align=center;verticalAlign=middle;resizable=0;points=[];autosize=1;fontSize=14;" vertex="1" parent="1">
          <mxGeometry x="340" y="220" width="60" height="20" as="geometry" />
        </mxCell>
        <mxCell id="MmkwMx68INJmbAwqy8bG-6" value="" style="endArrow=none;html=1;fontSize=14;" edge="1" parent="1">
          <mxGeometry width="50" height="50" relative="1" as="geometry">
            <mxPoint x="240" y="360" as="sourcePoint" />
            <mxPoint x="240" y="270" as="targetPoint" />
          </mxGeometry>
        </mxCell>
        <mxCell id="MmkwMx68INJmbAwqy8bG-7" value="" style="endArrow=classic;html=1;fontSize=14;" edge="1" parent="1">
          <mxGeometry width="50" height="50" relative="1" as="geometry">
            <mxPoint x="240" y="270" as="sourcePoint" />
            <mxPoint x="320" y="270" as="targetPoint" />
          </mxGeometry>
        </mxCell>
        <mxCell id="MmkwMx68INJmbAwqy8bG-8" value="" style="endArrow=classic;html=1;fontSize=14;" edge="1" parent="1">
          <mxGeometry width="50" height="50" relative="1" as="geometry">
            <mxPoint x="420" y="269.71" as="sourcePoint" />
            <mxPoint x="500" y="269.71" as="targetPoint" />
          </mxGeometry>
        </mxCell>
        <mxCell id="MmkwMx68INJmbAwqy8bG-11" value="&lt;span&gt;eFuse&lt;/span&gt;&lt;br&gt;&lt;span&gt;TPS25944L&lt;/span&gt;" style="rounded=0;whiteSpace=wrap;html=1;fontSize=14;fillColor=#dae8fc;strokeColor=#6c8ebf;" vertex="1" parent="1">
          <mxGeometry x="500" y="240" width="110" height="60" as="geometry" />
        </mxCell>
        <mxCell id="MmkwMx68INJmbAwqy8bG-12" value="" style="endArrow=classic;html=1;fontSize=14;" edge="1" parent="1">
          <mxGeometry width="50" height="50" relative="1" as="geometry">
            <mxPoint x="610" y="269.71000000000004" as="sourcePoint" />
            <mxPoint x="690" y="269.71000000000004" as="targetPoint" />
          </mxGeometry>
        </mxCell>
        <mxCell id="MmkwMx68INJmbAwqy8bG-14" value="Buck&lt;br&gt;TPS53015" style="rounded=0;whiteSpace=wrap;html=1;fontSize=14;fillColor=#ffe6cc;strokeColor=#d79b00;" vertex="1" parent="1">
          <mxGeometry x="320" y="360" width="100" height="60" as="geometry" />
        </mxCell>
        <mxCell id="MmkwMx68INJmbAwqy8bG-15" value="5V@4A" style="text;html=1;align=center;verticalAlign=middle;resizable=0;points=[];autosize=1;fontSize=14;" vertex="1" parent="1">
          <mxGeometry x="340" y="340" width="60" height="20" as="geometry" />
        </mxCell>
        <mxCell id="MmkwMx68INJmbAwqy8bG-16" value="5A Protection" style="text;html=1;align=center;verticalAlign=middle;resizable=0;points=[];autosize=1;fontSize=14;" vertex="1" parent="1">
          <mxGeometry x="500" y="220" width="100" height="20" as="geometry" />
        </mxCell>
        <mxCell id="MmkwMx68INJmbAwqy8bG-17" value="" style="endArrow=classic;html=1;fontSize=14;" edge="1" parent="1">
          <mxGeometry width="50" height="50" relative="1" as="geometry">
            <mxPoint x="240" y="389.71" as="sourcePoint" />
            <mxPoint x="320" y="389.71" as="targetPoint" />
          </mxGeometry>
        </mxCell>
        <mxCell id="MmkwMx68INJmbAwqy8bG-18" value="" style="endArrow=none;html=1;fontSize=14;" edge="1" parent="1">
          <mxGeometry width="50" height="50" relative="1" as="geometry">
            <mxPoint x="240" y="660" as="sourcePoint" />
            <mxPoint x="240" y="360" as="targetPoint" />
          </mxGeometry>
        </mxCell>
        <mxCell id="MmkwMx68INJmbAwqy8bG-19" value="" style="endArrow=classic;html=1;fontSize=14;" edge="1" parent="1">
          <mxGeometry width="50" height="50" relative="1" as="geometry">
            <mxPoint x="420" y="389.71000000000004" as="sourcePoint" />
            <mxPoint x="690" y="389.9546875" as="targetPoint" />
          </mxGeometry>
        </mxCell>
        <mxCell id="MmkwMx68INJmbAwqy8bG-21" value="Buck&lt;br&gt;TPS53015" style="rounded=0;whiteSpace=wrap;html=1;fontSize=14;fillColor=#ffe6cc;strokeColor=#d79b00;" vertex="1" parent="1">
          <mxGeometry x="320" y="520" width="100" height="60" as="geometry" />
        </mxCell>
        <mxCell id="MmkwMx68INJmbAwqy8bG-22" value="3V3@3A" style="text;html=1;align=center;verticalAlign=middle;resizable=0;points=[];autosize=1;fontSize=14;" vertex="1" parent="1">
          <mxGeometry x="335" y="500" width="70" height="20" as="geometry" />
        </mxCell>
        <mxCell id="MmkwMx68INJmbAwqy8bG-23" value="&lt;font style=&quot;font-size: 14px&quot;&gt;LDO&lt;br&gt;3V3&lt;/font&gt;" style="rounded=0;whiteSpace=wrap;html=1;fontSize=18;fillColor=#fff2cc;strokeColor=#d6b656;" vertex="1" parent="1">
          <mxGeometry x="420" y="440" width="80" height="50" as="geometry" />
        </mxCell>
        <mxCell id="MmkwMx68INJmbAwqy8bG-24" value="" style="endArrow=classic;html=1;fontSize=14;" edge="1" parent="1">
          <mxGeometry width="50" height="50" relative="1" as="geometry">
            <mxPoint x="360" y="460" as="sourcePoint" />
            <mxPoint x="420" y="460.00000000000006" as="targetPoint" />
          </mxGeometry>
        </mxCell>
        <mxCell id="MmkwMx68INJmbAwqy8bG-25" value="" style="endArrow=none;html=1;fontSize=18;" edge="1" parent="1">
          <mxGeometry width="50" height="50" relative="1" as="geometry">
            <mxPoint x="360" y="460" as="sourcePoint" />
            <mxPoint x="360" y="420" as="targetPoint" />
          </mxGeometry>
        </mxCell>
        <mxCell id="MmkwMx68INJmbAwqy8bG-27" value="MCU" style="rounded=1;whiteSpace=wrap;html=1;fontSize=18;fillColor=#d5e8d4;strokeColor=#82b366;" vertex="1" parent="1">
          <mxGeometry x="690" y="440" width="120" height="40" as="geometry" />
        </mxCell>
        <mxCell id="MmkwMx68INJmbAwqy8bG-28" value="&lt;span&gt;XAVIER NX&lt;br&gt;&lt;/span&gt;" style="rounded=1;whiteSpace=wrap;html=1;fontSize=18;fillColor=#fa6800;strokeColor=#C73500;fontColor=#ffffff;" vertex="1" parent="1">
          <mxGeometry x="690" y="240" width="120" height="60" as="geometry" />
        </mxCell>
        <mxCell id="MmkwMx68INJmbAwqy8bG-29" value="&lt;span&gt;Peripheral&lt;br&gt;&lt;/span&gt;&lt;span&gt;Devices&lt;br&gt;&lt;/span&gt;" style="rounded=1;whiteSpace=wrap;html=1;fontSize=18;fillColor=#e3c800;strokeColor=#B09500;fontColor=#ffffff;" vertex="1" parent="1">
          <mxGeometry x="690" y="360" width="120" height="60" as="geometry" />
        </mxCell>
        <mxCell id="MmkwMx68INJmbAwqy8bG-30" value="" style="endArrow=classic;html=1;fontSize=14;entryX=0;entryY=0.5;entryDx=0;entryDy=0;" edge="1" parent="1" target="MmkwMx68INJmbAwqy8bG-27">
          <mxGeometry width="50" height="50" relative="1" as="geometry">
            <mxPoint x="500" y="459.76000000000005" as="sourcePoint" />
            <mxPoint x="770" y="460.0046875" as="targetPoint" />
          </mxGeometry>
        </mxCell>
        <mxCell id="MmkwMx68INJmbAwqy8bG-31" value="" style="endArrow=classic;html=1;fontSize=14;" edge="1" parent="1">
          <mxGeometry width="50" height="50" relative="1" as="geometry">
            <mxPoint x="240" y="549.71" as="sourcePoint" />
            <mxPoint x="320" y="549.71" as="targetPoint" />
          </mxGeometry>
        </mxCell>
        <mxCell id="MmkwMx68INJmbAwqy8bG-32" value="&lt;span&gt;Peripheral&lt;br&gt;&lt;/span&gt;&lt;span&gt;(USB,PCIe)&lt;br&gt;&lt;/span&gt;" style="rounded=1;whiteSpace=wrap;html=1;fontSize=18;fillColor=#d5e8d4;strokeColor=#82b366;" vertex="1" parent="1">
          <mxGeometry x="690" y="520" width="120" height="60" as="geometry" />
        </mxCell>
        <mxCell id="MmkwMx68INJmbAwqy8bG-33" value="" style="endArrow=classic;html=1;fontSize=14;" edge="1" parent="1">
          <mxGeometry width="50" height="50" relative="1" as="geometry">
            <mxPoint x="420" y="549.76" as="sourcePoint" />
            <mxPoint x="690.0000000000002" y="550.0046875" as="targetPoint" />
          </mxGeometry>
        </mxCell>
        <mxCell id="MmkwMx68INJmbAwqy8bG-34" value="&lt;span&gt;eFuse&lt;/span&gt;&lt;br&gt;&lt;span&gt;TPS25944L&lt;/span&gt;" style="rounded=0;whiteSpace=wrap;html=1;fontSize=14;fillColor=#dae8fc;strokeColor=#6c8ebf;" vertex="1" parent="1">
          <mxGeometry x="320" y="640" width="100" height="60" as="geometry" />
        </mxCell>
        <mxCell id="MmkwMx68INJmbAwqy8bG-35" value="12V/3A Protection" style="text;html=1;align=center;verticalAlign=middle;resizable=0;points=[];autosize=1;fontSize=14;" vertex="1" parent="1">
          <mxGeometry x="305" y="620" width="130" height="20" as="geometry" />
        </mxCell>
        <mxCell id="MmkwMx68INJmbAwqy8bG-37" value="5A Protection" style="text;html=1;align=center;verticalAlign=middle;resizable=0;points=[];autosize=1;fontSize=14;" vertex="1" parent="1">
          <mxGeometry x="520" y="240" width="100" height="20" as="geometry" />
        </mxCell>
        <mxCell id="MmkwMx68INJmbAwqy8bG-38" value="" style="endArrow=classic;html=1;fontSize=14;" edge="1" parent="1">
          <mxGeometry width="50" height="50" relative="1" as="geometry">
            <mxPoint x="240" y="660" as="sourcePoint" />
            <mxPoint x="320" y="660" as="targetPoint" />
          </mxGeometry>
        </mxCell>
        <mxCell id="MmkwMx68INJmbAwqy8bG-39" value="" style="endArrow=classic;html=1;fontSize=14;" edge="1" parent="1">
          <mxGeometry width="50" height="50" relative="1" as="geometry">
            <mxPoint x="420" y="659.71" as="sourcePoint" />
            <mxPoint x="690" y="659.9546875" as="targetPoint" />
          </mxGeometry>
        </mxCell>
        <mxCell id="MmkwMx68INJmbAwqy8bG-40" value="&lt;span&gt;Cameras&lt;br&gt;&lt;/span&gt;" style="rounded=1;whiteSpace=wrap;html=1;fontSize=18;fillColor=#e3c800;strokeColor=#B09500;fontColor=#ffffff;" vertex="1" parent="1">
          <mxGeometry x="690" y="630" width="120" height="60" as="geometry" />
        </mxCell>
      </root>
    </mxGraphModel>
  </diagram>
</mxfile>
